<svg xmlns="http://www.w3.org/2000/svg"  viewBox="0 0 64 64" width="512px" height="512px"><defs><style>.cls-1{fill:#d4e9ff;}.cls-2{fill:#f1f8ff;}.cls-3{fill:#b7daff;}</style></defs><title>1</title><g id="Layer_70" data-name="Layer 70"><path class="cls-1" d="M52,35V16L41,4H14.42A2.42,2.42,0,0,0,12,6.42V35H8V49h4v8.58A2.42,2.42,0,0,0,14.42,60H49.58A2.42,2.42,0,0,0,52,57.58V49h4V35Z"/><polygon class="cls-2" points="52 16 41 16 41 4 52 16"/><rect class="cls-3" x="12" y="49" width="40" height="4"/><path d="M19.76,46.06a.91.91,0,0,1-.63-.23.83.83,0,0,1-.26-.66.85.85,0,0,1,.25-.62.83.83,0,0,1,.62-.26.87.87,0,0,1,.63.26.83.83,0,0,1,.26.62.84.84,0,0,1-.26.65A.88.88,0,0,1,19.76,46.06Z"/><path d="M24.27,38.24v6.25H27.8a.93.93,0,0,1,.65.21.67.67,0,0,1,.23.52.65.65,0,0,1-.22.51,1,1,0,0,1-.65.2H23.6a.91.91,0,0,1-1.07-1.07V38.24a1.15,1.15,0,0,1,.24-.79.8.8,0,0,1,.62-.26.83.83,0,0,1,.64.26A1.13,1.13,0,0,1,24.27,38.24Z"/><path d="M31.52,38.24v6.25H35a.93.93,0,0,1,.65.21.67.67,0,0,1,.23.52.65.65,0,0,1-.22.51,1,1,0,0,1-.65.2h-4.2a.91.91,0,0,1-1.07-1.07V38.24a1.15,1.15,0,0,1,.24-.79.8.8,0,0,1,.62-.26.83.83,0,0,1,.64.26A1.13,1.13,0,0,1,31.52,38.24Z"/><path d="M40,44.62l-1.38-5.47v5.93a1.08,1.08,0,0,1-.22.74.81.81,0,0,1-1.16,0,1.07,1.07,0,0,1-.22-.74v-6.8a.85.85,0,0,1,.29-.76,1.4,1.4,0,0,1,.79-.2h.54a2.06,2.06,0,0,1,.71.09.59.59,0,0,1,.33.32,4.91,4.91,0,0,1,.24.74l1.25,4.71,1.25-4.71a4.91,4.91,0,0,1,.24-.74.59.59,0,0,1,.33-.32,2.06,2.06,0,0,1,.71-.09h.54a1.4,1.4,0,0,1,.79.2.85.85,0,0,1,.29.76v6.8a1.08,1.08,0,0,1-.22.74.75.75,0,0,1-.59.25.73.73,0,0,1-.57-.25,1.07,1.07,0,0,1-.22-.74V39.15L42.3,44.62c-.09.36-.16.62-.22.78a1.08,1.08,0,0,1-.31.45.91.91,0,0,1-.63.21.92.92,0,0,1-.84-.47,1.92,1.92,0,0,1-.18-.45Z"/><path d="M57,35a1,1,0,0,0-1-1H53V16s0,0,0-.06a1,1,0,0,0,0-.21s0-.05,0-.07l0,0a1,1,0,0,0-.18-.29l-11-12a1,1,0,0,0-.29-.21l0,0-.06,0A1,1,0,0,0,41.11,3H14.42A3.42,3.42,0,0,0,11,6.42V34H8a1,1,0,0,0-1,1V49s0,0,0,.07a1.08,1.08,0,0,0,.34.68l0,.05L11,52.5v5.08A3.42,3.42,0,0,0,14.42,61H49.58A3.42,3.42,0,0,0,53,57.58V52.5l3.6-2.7,0-.05a1.08,1.08,0,0,0,.34-.68s0,0,0-.07ZM21,34V5H40V16a1,1,0,0,0,1,1H51V34ZM42,6.57,49.73,15H42ZM13,6.42A1.42,1.42,0,0,1,14.42,5H19V34H13ZM9,36H55V48H9Zm4,21.58V50h6v9H14.42A1.42,1.42,0,0,1,13,57.58ZM49.58,59H21V50H51v7.58A1.42,1.42,0,0,1,49.58,59Z"/></g></svg>
